<svg width="198" height="39" viewBox="0 0 198 39" fill="none" xmlns="http://www.w3.org/2000/svg">
<path d="M81.3346 19.341C80.9188 18.9201 80.356 18.6172 79.6411 18.4325C78.9261 18.2477 78.0287 18.1553 76.9385 18.1553H67.5785C66.1284 18.1553 64.9216 18.2785 63.9532 18.5248C62.9847 18.7764 62.209 19.1613 61.6208 19.69C61.0326 20.2187 60.6118 20.8963 60.3583 21.7278C60.1047 22.5593 59.9729 23.5551 59.9729 24.7203V29.381C59.9729 30.5462 60.0997 31.542 60.3583 32.3735C60.6118 33.205 61.0326 33.8826 61.6208 34.4113C62.209 34.94 62.9847 35.3198 63.9532 35.561C64.9216 35.7972 66.1335 35.9152 67.5785 35.9152H81.3498C81.7352 35.9152 81.9228 35.7202 81.9228 35.3352V32.6199C81.9228 32.2298 81.7301 32.0398 81.3498 32.0398H68.0247C66.6405 32.0398 65.7075 31.814 65.2309 31.3623C64.7543 30.9055 64.5109 30.1766 64.5109 29.1603V28.3852H80.645C81.2636 28.3852 81.7199 28.2466 82.0191 27.9797C82.3183 27.7128 82.4653 27.2303 82.4653 26.5425V23.4679C82.4653 22.4977 82.3791 21.6713 82.2118 20.9938C82.0445 20.3111 81.7504 19.7619 81.3346 19.341ZM77.9983 24.9513C77.9983 25.3208 77.8157 25.5005 77.4557 25.5005H64.516V24.6279C64.516 23.591 64.7543 22.857 65.236 22.4156C65.7177 21.9742 66.6456 21.7483 68.0298 21.7483H76.0512C76.7966 21.7483 77.3087 21.8869 77.5825 22.1692C77.8613 22.4464 77.9983 22.9238 77.9983 23.591V24.9513Z" fill="#9D1F32"/>
<path d="M29.8749 19.7003C29.2766 19.1716 28.4958 18.7815 27.5273 18.5351C26.5589 18.2887 25.3572 18.1655 23.9324 18.1655H7.60563C6.15549 18.1655 4.94873 18.2887 3.98028 18.5351C3.01183 18.7866 2.23099 19.1716 1.64789 19.7003C1.05972 20.229 0.643944 20.9065 0.385352 21.738C0.126761 22.5644 0 23.5654 0 24.7254V35.2069C0 35.6791 0.24338 35.9203 0.735211 35.9203H3.86873C4.33521 35.9203 4.57352 35.6842 4.57352 35.2069V25.829C4.57352 25.1617 4.6293 24.592 4.7307 24.13C4.83718 23.668 5.02479 23.3036 5.28845 23.0315C5.55211 22.7595 5.91211 22.5696 6.35831 22.4515C6.80451 22.3335 7.3724 22.2719 8.05183 22.2719H13.4823V35.212C13.4823 35.6842 13.7155 35.9255 14.187 35.9255H17.3206C17.8073 35.9255 18.0558 35.6893 18.0558 35.212V22.2719H23.6789C24.3837 22.2719 24.9465 22.3283 25.3724 22.4515C25.7983 22.5696 26.1279 22.7646 26.3611 23.0315C26.5944 23.3036 26.7566 23.668 26.8377 24.13C26.9239 24.592 26.9645 25.1617 26.9645 25.829V35.2069C26.9645 35.6791 27.1977 35.9203 27.6693 35.9203H30.8028C31.2693 35.9203 31.5076 35.6842 31.5076 35.2069V24.7254C31.5076 23.5602 31.3859 22.5644 31.1425 21.7329C30.8941 20.9065 30.4732 20.229 29.8749 19.7003Z" fill="#9D1F32"/>
<path d="M56.1245 19.341C55.7087 18.9201 55.1459 18.6172 54.431 18.4325C53.7161 18.2477 52.8186 18.1553 51.7285 18.1553H42.3685C40.9183 18.1553 39.7116 18.2785 38.7431 18.5248C37.7747 18.7764 36.9989 19.1613 36.4107 19.69C35.8225 20.2187 35.4017 20.8963 35.1482 21.7278C34.8946 22.5593 34.7628 23.5551 34.7628 24.7203V29.381C34.7628 30.5462 34.8896 31.542 35.1482 32.3735C35.4017 33.205 35.8225 33.8826 36.4107 34.4113C36.9989 34.94 37.7747 35.3198 38.7431 35.561C39.7116 35.7972 40.9234 35.9152 42.3685 35.9152H56.1397C56.5251 35.9152 56.7127 35.7202 56.7127 35.3352V32.6199C56.7127 32.2298 56.52 32.0398 56.1397 32.0398H42.8147C41.4304 32.0398 40.4975 31.814 40.0208 31.3623C39.5442 30.9055 39.3008 30.1766 39.3008 29.1603V28.3852H55.4349C56.0535 28.3852 56.5099 28.2466 56.809 27.9797C57.1082 27.7128 57.2552 27.2303 57.2552 26.5425V23.4679C57.2552 22.4977 57.169 21.6713 57.0017 20.9938C56.8344 20.3111 56.5403 19.7619 56.1245 19.341ZM52.7882 24.9513C52.7882 25.3208 52.6056 25.5005 52.2456 25.5005H39.3008V24.6279C39.3008 23.591 39.5392 22.857 40.0208 22.4156C40.5025 21.9742 41.4304 21.7483 42.8147 21.7483H50.8361C51.5814 21.7483 52.0935 21.8869 52.3673 22.1692C52.6462 22.4464 52.7831 22.9238 52.7831 23.591V24.9513H52.7882Z" fill="#9D1F32"/>
<path d="M196.525 32.1014H193.427C192.362 32.1014 191.647 31.8909 191.287 31.47C190.922 31.0491 190.744 30.387 190.744 29.4784V21.9792H196.337C196.722 21.9792 196.915 21.7842 196.915 21.3992V18.7455C196.915 18.3554 196.722 18.1655 196.337 18.1655H190.744V13.8949C190.744 13.4175 190.511 13.1814 190.039 13.1814H186.876C186.409 13.1814 186.171 13.4175 186.171 13.8949V18.1655H183.134C182.748 18.1655 182.556 18.3605 182.556 18.7455V21.3992C182.556 21.7893 182.748 21.9792 183.134 21.9792H186.171V29.4836C186.171 30.6282 186.267 31.6086 186.46 32.4247C186.652 33.246 186.997 33.9133 187.499 34.4317C187.996 34.9501 188.665 35.3249 189.497 35.561C190.329 35.7971 191.383 35.9151 192.661 35.9151H196.53C196.915 35.9151 197.103 35.7201 197.103 35.3351V32.6814C197.103 32.2964 196.91 32.1014 196.525 32.1014Z" fill="#9D1F32"/>
<path d="M178.971 19.7003C178.382 19.1716 177.602 18.7815 176.623 18.5351C175.644 18.2887 174.438 18.1655 173.013 18.1655H159.211C158.826 18.1655 158.633 18.3606 158.633 18.7455V21.4609C158.633 21.851 158.826 22.0409 159.211 22.0409H172.567C173.272 22.0409 173.844 22.0974 174.291 22.2051C174.737 22.3129 175.087 22.4823 175.345 22.7082C175.599 22.934 175.781 23.2317 175.888 23.5962C175.994 23.9657 176.045 24.402 176.045 24.9205V25.5364H163.039C162.101 25.5364 161.321 25.6288 160.692 25.8136C160.063 25.9984 159.556 26.2704 159.176 26.64C158.79 27.0096 158.522 27.4561 158.359 27.9797C158.202 28.5084 158.121 29.1089 158.121 29.7762V31.3315C158.121 32.1271 158.202 32.82 158.359 33.4001C158.517 33.9801 158.79 34.4574 159.176 34.827C159.561 35.1966 160.063 35.4686 160.692 35.6534C161.321 35.8382 162.101 35.9306 163.039 35.9306H178.251C178.717 35.9306 179.103 35.8947 179.402 35.8177C179.701 35.7407 179.939 35.6072 180.122 35.4122C180.304 35.2171 180.431 34.9502 180.507 34.6217C180.583 34.2881 180.619 33.862 180.619 33.3436V24.7254C180.619 23.5602 180.492 22.5644 180.233 21.7329C179.975 20.9065 179.554 20.229 178.971 19.7003ZM176.045 31.2596C176.045 31.6703 175.974 31.9577 175.837 32.1168C175.7 32.276 175.457 32.3581 175.117 32.3581H164.348C163.688 32.3581 163.222 32.2246 162.958 31.9526C162.69 31.6805 162.558 31.2545 162.558 30.6745V29.9969C162.558 29.4785 162.69 29.0884 162.958 28.8164C163.222 28.5443 163.688 28.4109 164.348 28.4109H176.045V31.2596Z" fill="#9D1F32"/>
<path d="M154.795 13.2788H140.385C138.767 13.2788 137.393 13.4328 136.263 13.7459C135.132 14.059 134.214 14.5518 133.499 15.2345C132.784 15.912 132.262 16.7949 131.932 17.8728C131.603 18.9507 131.436 20.2647 131.436 21.82V27.3841C131.436 28.9394 131.603 30.2585 131.932 31.3467C132.262 32.4349 132.784 33.3178 133.499 33.9953C134.214 34.678 135.132 35.1656 136.263 35.4685C137.393 35.7713 138.767 35.9202 140.385 35.9202H154.795C155.261 35.9202 155.5 35.684 155.5 35.2067V32.0345C155.5 31.5572 155.267 31.3211 154.795 31.3211H140.578C139.746 31.3211 139.061 31.2492 138.519 31.1106C137.976 30.972 137.545 30.7359 137.226 30.3971C136.907 30.0635 136.678 29.6118 136.541 29.042C136.405 28.4671 136.334 27.7537 136.334 26.8913V22.2974C136.334 21.435 136.405 20.7216 136.541 20.1621C136.678 19.6026 136.907 19.1509 137.226 18.8172C137.545 18.4836 137.976 18.2475 138.519 18.1038C139.061 17.9652 139.751 17.8933 140.578 17.8933H154.795C155.261 17.8933 155.5 17.6469 155.5 17.149V13.9769C155.5 13.5149 155.261 13.2788 154.795 13.2788Z" fill="#9D1F32"/>
<path d="M102.341 18.1604H93.3971C91.947 18.1604 90.7402 18.2836 89.7718 18.53C88.8033 18.7815 88.0225 19.1665 87.4394 19.6951C86.8512 20.2238 86.4355 20.9014 86.1769 21.7329C85.9183 22.5645 85.7915 23.5602 85.7915 24.7254V35.2069C85.7915 35.6791 86.0349 35.9203 86.5267 35.9203H89.6602C90.1267 35.9203 90.365 35.6842 90.365 35.2069V25.6031C90.365 24.9359 90.4208 24.3661 90.5222 23.9041C90.6287 23.4422 90.8163 23.0777 91.08 22.8057C91.3436 22.5337 91.7036 22.3437 92.1498 22.2257C92.596 22.1076 93.1639 22.046 93.8433 22.046H102.341C102.727 22.046 102.919 21.851 102.919 21.466V18.7507C102.919 18.3555 102.727 18.1604 102.341 18.1604Z" fill="#9D1F32"/>
<path d="M178.342 0V9.17768H198.005V0H178.342ZM187.068 3.70084C187.068 3.82917 187.002 3.89589 186.876 3.89589H182.713C182.474 3.89589 182.282 3.91643 182.135 3.95749C181.983 3.99855 181.866 4.06528 181.78 4.15254C181.694 4.24493 181.633 4.36299 181.597 4.52211C181.562 4.6761 181.541 4.86602 181.541 5.09187V6.05686C181.541 6.28784 181.557 6.47776 181.597 6.63175C181.633 6.78573 181.694 6.90892 181.78 6.99618C181.866 7.08858 181.983 7.15017 182.135 7.19123C182.282 7.2323 182.48 7.25283 182.713 7.25283H186.876C187.002 7.25283 187.068 7.31956 187.068 7.44788V8.36154C187.068 8.495 187.002 8.55659 186.876 8.55659H182.561C182.074 8.55659 181.668 8.51553 181.344 8.43854C181.019 8.36154 180.756 8.23322 180.563 8.05357C180.365 7.87391 180.223 7.64807 180.137 7.37089C180.051 7.09371 180.01 6.75494 180.01 6.36483V4.79416C180.01 4.40405 180.056 4.06528 180.137 3.7881C180.223 3.51092 180.365 3.27994 180.563 3.10029C180.761 2.92064 181.019 2.79231 181.344 2.71019C181.668 2.62806 182.074 2.587 182.561 2.587H186.876C187.002 2.587 187.068 2.65372 187.068 2.78205V3.70084ZM196.19 8.31535C196.19 8.47447 196.109 8.55659 195.952 8.55659H194.897C194.74 8.55659 194.659 8.4796 194.659 8.31535V5.16373C194.659 4.93788 194.643 4.74796 194.618 4.59397C194.588 4.43485 194.532 4.31679 194.451 4.2244C194.37 4.13201 194.258 4.06528 194.111 4.02935C193.969 3.98829 193.781 3.96775 193.553 3.96775H189.614V8.31535C189.614 8.47447 189.532 8.55659 189.375 8.55659H188.321C188.163 8.55659 188.082 8.4796 188.082 8.31535V0.641616C188.082 0.482495 188.163 0.405501 188.321 0.405501H189.375C189.532 0.405501 189.614 0.482495 189.614 0.641616V2.587H193.629C194.106 2.587 194.512 2.62806 194.841 2.71019C195.171 2.79231 195.434 2.92064 195.632 3.10029C195.83 3.27994 195.972 3.50579 196.058 3.7881C196.144 4.06528 196.185 4.39892 196.185 4.79416V8.31535H196.19Z" fill="#9D1F32"/>
<path d="M130.183 24.3917C130.011 23.6371 129.666 22.9647 129.169 22.395C128.54 21.6815 127.709 21.1939 126.75 20.9783C126.994 19.5718 126.872 18.227 126.401 17.0772C125.888 15.8402 124.981 14.8957 123.84 14.4235C122.699 13.9462 121.396 13.9718 120.174 14.4851C119.895 14.6032 119.621 14.7469 119.358 14.9111C118.886 14.2028 118.313 13.6433 117.644 13.2378C116.97 12.8323 116.239 12.6116 115.479 12.5808C114.713 12.55 113.973 12.7143 113.268 13.0684C112.472 13.4688 111.782 14.0847 111.225 14.8957C110.738 15.6041 110.373 16.4151 110.14 17.3185C109.181 17.1132 108.223 17.2107 107.361 17.5905C106.256 18.0833 105.384 19.0278 104.917 20.2494C104.288 21.8919 104.4 23.9143 105.221 25.8084C105.698 26.9068 106.382 27.8718 107.199 28.6109C107.179 28.6366 107.158 28.6674 107.138 28.6931C106.621 29.4271 106.271 30.197 106.099 30.9926C105.865 32.0808 105.972 33.169 106.418 34.134C106.859 35.0938 107.604 35.874 108.568 36.3873C110.469 37.3985 112.457 36.8288 113.309 36.5875L113.466 36.5413C114.181 36.3411 114.561 36.2539 114.693 36.2949L114.769 36.3155L114.84 36.3309C114.967 36.3411 115.286 36.5926 115.854 37.07L115.981 37.1778C116.508 37.6295 117.593 38.5637 119.074 38.8819C119.479 38.9692 119.915 39.0103 120.377 38.9846C121.462 38.923 122.456 38.5278 123.252 37.8348C124.053 37.1419 124.595 36.2025 124.829 35.1092C124.996 34.3136 124.996 33.4616 124.824 32.5787C124.819 32.5428 124.808 32.512 124.803 32.476C125.853 32.1475 126.867 31.5572 127.754 30.7565C128.9 29.7196 129.737 28.4108 130.107 27.0659C130.35 26.1523 130.376 25.2489 130.183 24.3917ZM118.891 19.7772C119.723 17.724 121.462 16.5024 122.765 17.0464C124.073 17.5905 124.453 19.695 123.622 21.7482C122.79 23.8014 121.051 25.023 119.748 24.4789C118.445 23.9348 118.06 21.8303 118.891 19.7772ZM112.66 19.3357C112.741 17.1183 113.953 15.3628 115.367 15.4193C116.782 15.4758 117.857 17.3134 117.776 19.5308C117.695 21.7482 116.483 23.5037 115.068 23.4472C113.653 23.3959 112.579 21.5532 112.66 19.3357ZM107.782 24.674C106.945 22.7491 107.26 20.7422 108.487 20.1981C109.714 19.6488 111.387 20.7678 112.224 22.6927C113.06 24.6175 112.746 26.6245 111.519 27.1686C110.292 27.7178 108.619 26.5988 107.782 24.674ZM120.204 36.1615C118.344 36.2693 117.279 33.9338 115.367 33.5539C115.362 33.5539 115.357 33.5539 115.347 33.5488C115.342 33.5488 115.337 33.5437 115.332 33.5437C113.435 33.0869 111.514 34.7602 109.861 33.8825C108.213 33.0047 108.172 30.5153 111.62 28.4108C113.973 26.9787 114.911 25.0384 117.081 25.4593C119.231 25.9931 119.287 28.149 120.838 30.4434C123.12 33.8055 122.065 36.0537 120.204 36.1615ZM125.878 28.652C124.327 30.0533 122.344 30.3664 121.457 29.3552C120.564 28.344 121.102 26.3884 122.653 24.9871C124.205 23.5858 126.188 23.2727 127.075 24.2839C127.962 25.2951 127.43 27.2558 125.878 28.652Z" fill="#9D1F32"/>
</svg>
