<svg width="46" height="35" viewBox="0 0 46 35" fill="none" xmlns="http://www.w3.org/2000/svg">
<path d="M23 18.708L18.8545 22.8535C18.7568 22.9512 18.6396 23 18.5029 23C18.3597 23 18.2393 22.9528 18.1416 22.8584C18.0472 22.7607 18 22.6403 18 22.4971C18 22.3604 18.0488 22.2432 18.1465 22.1455L22.292 18L18.1465 13.8545C18.0488 13.7568 18 13.638 18 13.498C18 13.4297 18.013 13.3646 18.0391 13.3027C18.0651 13.2409 18.1009 13.1888 18.1465 13.1465C18.1921 13.1009 18.2458 13.0651 18.3076 13.0391C18.3695 13.013 18.4346 13 18.5029 13C18.6396 13 18.7568 13.0488 18.8545 13.1465L23 17.292L27.1455 13.1465C27.2432 13.0488 27.362 13 27.502 13C27.5703 13 27.6338 13.013 27.6924 13.0391C27.7542 13.0651 27.8079 13.1009 27.8535 13.1465C27.8991 13.1921 27.9349 13.2458 27.9609 13.3076C27.987 13.3662 28 13.4297 28 13.498C28 13.638 27.9512 13.7568 27.8535 13.8545L23.708 18L27.8535 22.1455C27.9512 22.2432 28 22.3604 28 22.4971C28 22.5654 27.987 22.6305 27.9609 22.6924C27.9349 22.7542 27.8991 22.8079 27.8535 22.8535C27.8112 22.8991 27.7591 22.9349 27.6973 22.9609C27.6354 22.987 27.5703 23 27.502 23C27.362 23 27.2432 22.9512 27.1455 22.8535L23 18.708Z" fill="#666666"/>
</svg>
