<svg width="98" height="12" viewBox="0 0 98 12" fill="none" xmlns="http://www.w3.org/2000/svg">
<path d="M1.324 0.962H1.618C2.444 0.962 2.738 1.13 3.242 2.39L5.16 7.178L6.994 2.404C7.456 1.186 7.806 0.962 8.632 0.962H8.926C9.822 0.962 10.116 1.242 10.116 2.124V10.3C10.116 10.804 9.724 11.028 9.262 11.028C8.828 11.028 8.422 10.804 8.422 10.3V2.53C8.254 3.244 8.114 3.65 7.96 4.042L6.112 8.592C5.874 9.18 5.636 9.334 5.16 9.334C4.586 9.334 4.348 9.166 4.11 8.55L2.304 4.042C2.15 3.664 2.01 3.244 1.814 2.53V10.3C1.814 10.804 1.408 11.028 0.96 11.028C0.54 11.028 0.134 10.804 0.134 10.3V2.124C0.134 1.242 0.428 0.962 1.324 0.962ZM14.974 0.99H19.748C20.168 0.99 20.364 1.326 20.364 1.732C20.364 2.124 20.168 2.474 19.748 2.474H15.562V5.12H19.468C19.874 5.12 20.07 5.456 20.07 5.848C20.07 6.24 19.874 6.576 19.468 6.576H15.562V9.46H19.846C20.266 9.46 20.462 9.81 20.462 10.202C20.462 10.608 20.266 10.944 19.846 10.944H14.974C14.078 10.944 13.784 10.664 13.784 9.782V2.152C13.784 1.27 14.078 0.99 14.974 0.99ZM24.8916 0.99H29.6656C30.0856 0.99 30.2816 1.326 30.2816 1.732C30.2816 2.124 30.0856 2.474 29.6656 2.474H25.4796V5.12H29.3856C29.7916 5.12 29.9876 5.456 29.9876 5.848C29.9876 6.24 29.7916 6.576 29.3856 6.576H25.4796V9.46H29.7636C30.1836 9.46 30.3796 9.81 30.3796 10.202C30.3796 10.608 30.1836 10.944 29.7636 10.944H24.8916C23.9956 10.944 23.7016 10.664 23.7016 9.782V2.152C23.7016 1.27 23.9956 0.99 24.8916 0.99ZM34.8092 0.99H37.4412C39.5132 0.99 40.7172 2.11 40.7172 3.86V4.112C40.7172 5.4 40.0592 6.254 39.0232 6.674L40.7872 9.796C41.0392 10.258 40.8572 10.706 40.4232 10.916C39.9892 11.112 39.4852 11.098 39.2472 10.622L37.3292 6.954C37.2312 6.968 37.1192 6.968 37.0212 6.968H35.4112V10.258C35.4112 10.79 34.9912 11.028 34.5152 11.028C34.0392 11.028 33.6192 10.79 33.6192 10.258V2.152C33.6192 1.27 33.9132 0.99 34.8092 0.99ZM35.4112 2.488V5.47H37.0492C38.4072 5.47 38.9392 4.994 38.9392 4.084V3.902C38.9392 2.978 38.4072 2.488 37.2032 2.488H35.4112ZM48.1533 0.836C49.4413 0.836 50.3933 1.144 51.0373 1.592C51.4573 1.886 51.4853 2.362 51.2193 2.74C50.9813 3.09 50.5473 3.23 50.1553 2.992C49.5673 2.642 48.9933 2.488 48.1113 2.488C46.5713 2.488 45.6893 3.412 45.6893 5.82V6.114C45.6893 8.452 46.4873 9.432 48.1253 9.432C49.0493 9.432 49.7213 9.222 50.3653 8.788C50.7433 8.536 51.1913 8.592 51.4713 8.984C51.7513 9.376 51.7093 9.894 51.2613 10.216C50.4633 10.79 49.3713 11.098 48.0833 11.098C45.4513 11.098 43.8833 9.656 43.8833 6.254V5.68C43.8833 2.278 45.4513 0.836 48.1533 0.836ZM58.5582 0.906C59.0342 0.906 59.3982 1.088 59.6502 1.732L62.8002 9.852C63.0102 10.384 62.7582 10.818 62.2962 10.958C61.8342 11.098 61.3162 11.056 61.1062 10.454L60.2942 8.214H56.7662L55.9402 10.51C55.7442 11.056 55.2682 11.112 54.8202 10.958C54.3722 10.804 54.1342 10.44 54.3302 9.922L57.4802 1.732C57.7182 1.088 58.0962 0.906 58.5582 0.906ZM58.5302 3.146C58.3762 3.706 58.2642 4.056 58.0402 4.7L57.2982 6.73H59.7622L59.0342 4.7C58.7962 4.042 58.6702 3.636 58.5302 3.146ZM64.7969 0.99H71.4189C71.8529 0.99 72.0489 1.34 72.0489 1.746C72.0489 2.152 71.8529 2.502 71.4189 2.502H69.0109V10.258C69.0109 10.79 68.5909 11.028 68.1149 11.028C67.6389 11.028 67.2189 10.79 67.2189 10.258V2.502H64.7969C64.3629 2.502 64.1669 2.152 64.1669 1.746C64.1669 1.34 64.3629 0.99 64.7969 0.99ZM74.4006 9.432C75.0306 9.432 75.5066 9.908 75.5066 10.538C75.5066 11.168 75.0306 11.644 74.4006 11.644C73.7706 11.644 73.2946 11.168 73.2946 10.538C73.2946 9.908 73.7706 9.432 74.4006 9.432ZM82.6967 0.836C83.9847 0.836 84.9367 1.144 85.5807 1.592C86.0007 1.886 86.0287 2.362 85.7627 2.74C85.5247 3.09 85.0907 3.23 84.6987 2.992C84.1107 2.642 83.5367 2.488 82.6547 2.488C81.1147 2.488 80.2327 3.412 80.2327 5.82V6.114C80.2327 8.452 81.0307 9.432 82.6687 9.432C83.5927 9.432 84.2647 9.222 84.9087 8.788C85.2867 8.536 85.7347 8.592 86.0147 8.984C86.2947 9.376 86.2527 9.894 85.8047 10.216C85.0067 10.79 83.9147 11.098 82.6267 11.098C79.9947 11.098 78.4267 9.656 78.4267 6.254V5.68C78.4267 2.278 79.9947 0.836 82.6967 0.836ZM90.3155 0.906C90.7915 0.906 91.2115 1.144 91.2115 1.676V5.008H95.3975V1.676C95.3975 1.144 95.8175 0.906 96.2935 0.906C96.7695 0.906 97.1895 1.144 97.1895 1.676V10.258C97.1895 10.79 96.7695 11.028 96.2935 11.028C95.8175 11.028 95.3975 10.79 95.3975 10.258V6.492H91.2115V10.258C91.2115 10.79 90.7915 11.028 90.3155 11.028C89.8395 11.028 89.4195 10.79 89.4195 10.258V1.676C89.4195 1.144 89.8395 0.906 90.3155 0.906Z" fill="#9D1F32"/>
</svg>
