<svg width="46" height="35" viewBox="0 0 46 35" fill="none" xmlns="http://www.w3.org/2000/svg">
<path d="M18.498 18C18.4297 18 18.3646 17.987 18.3027 17.9609C18.2441 17.9349 18.1921 17.8991 18.1465 17.8535C18.1009 17.8079 18.0651 17.7559 18.0391 17.6973C18.013 17.6354 18 17.5703 18 17.502C18 17.4336 18.013 17.3701 18.0391 17.3115C18.0651 17.2497 18.1009 17.196 18.1465 17.1504C18.1921 17.1016 18.2441 17.0641 18.3027 17.0381C18.3646 17.012 18.4297 16.999 18.498 16.999H27.502C27.5703 16.999 27.6338 17.012 27.6924 17.0381C27.7542 17.0641 27.8079 17.1016 27.8535 17.1504C27.8991 17.196 27.9349 17.2497 27.9609 17.3115C27.987 17.3701 28 17.4336 28 17.502C28 17.5703 27.987 17.6354 27.9609 17.6973C27.9349 17.7559 27.8991 17.8079 27.8535 17.8535C27.8079 17.8991 27.7542 17.9349 27.6924 17.9609C27.6338 17.987 27.5703 18 27.502 18H18.498Z" fill="#666666"/>
</svg>
